<svg width="48" height="48" viewBox="0 0 48 48" fill="none" xmlns="http://www.w3.org/2000/svg">
<rect width="48" height="48" rx="5" fill="#6D44CC"/>
<path d="M39.4697 18.1173L24.4697 10.1173C24.325 10.0403 24.1636 10 23.9997 10C23.8358 10 23.6744 10.0403 23.5297 10.1173L8.52969 18.1173C8.36969 18.2026 8.23589 18.3298 8.14259 18.4852C8.04929 18.6407 8 18.8185 8 18.9998C8 19.1811 8.04929 19.359 8.14259 19.5145C8.23589 19.6699 8.36969 19.7971 8.52969 19.8823L11.9997 21.7336V27.7861C11.9986 28.2773 12.1794 28.7515 12.5072 29.1173C14.1447 30.9411 17.8134 33.9998 23.9997 33.9998C26.0509 34.0168 28.0867 33.6453 29.9997 32.9048V36.9998C29.9997 37.2651 30.105 37.5194 30.2926 37.7069C30.4801 37.8945 30.7345 37.9998 30.9997 37.9998C31.2649 37.9998 31.5193 37.8945 31.7068 37.7069C31.8943 37.5194 31.9997 37.2651 31.9997 36.9998V31.9386C33.3037 31.1858 34.4821 30.2339 35.4922 29.1173C35.82 28.7515 36.0007 28.2773 35.9997 27.7861V21.7336L39.4697 19.8823C39.6297 19.7971 39.7635 19.6699 39.8568 19.5145C39.9501 19.359 39.9994 19.1811 39.9994 18.9998C39.9994 18.8185 39.9501 18.6407 39.8568 18.4852C39.7635 18.3298 39.6297 18.2026 39.4697 18.1173ZM23.9997 31.9998C18.5909 31.9998 15.4097 29.3573 13.9997 27.7861V22.7998L23.5297 27.8823C23.6744 27.9594 23.8358 27.9997 23.9997 27.9997C24.1636 27.9997 24.325 27.9594 24.4697 27.8823L29.9997 24.9336V30.7261C28.4247 31.4611 26.4397 31.9998 23.9997 31.9998ZM33.9997 27.7811C33.4002 28.4463 32.7296 29.0436 31.9997 29.5623V23.8661L33.9997 22.7998V27.7811ZM31.4997 21.8673L31.4722 21.8511L24.4722 18.1173C24.2386 17.998 23.9676 17.9753 23.7174 18.0539C23.4672 18.1326 23.258 18.3064 23.1347 18.5378C23.0114 18.7693 22.984 19.0399 23.0583 19.2914C23.1327 19.5429 23.3029 19.7551 23.5322 19.8823L29.3747 22.9998L23.9997 25.8661L11.1247 18.9998L23.9997 12.1336L36.8747 18.9998L31.4997 21.8673Z" fill="white"/>
</svg>
